<?xml version="1.0" standalone="no"?>
<!DOCTYPE svg PUBLIC "-//W3C//DTD SVG 20010904//EN"
 "http://www.w3.org/TR/2001/REC-SVG-20010904/DTD/svg10.dtd">
<svg version="1.0" xmlns="http://www.w3.org/2000/svg"
 width="764.000000pt" height="778.000000pt" viewBox="0 0 764.000000 778.000000"
 preserveAspectRatio="xMidYMid meet">

<g transform="translate(0.000000,778.000000) scale(0.100000,-0.100000)"
fill="#000000" stroke="none">
<path d="M3315 7579 c-66 -10 -142 -21 -170 -25 -27 -3 -59 -9 -70 -14 -11 -4
-58 -16 -105 -26 -47 -9 -89 -21 -94 -26 -6 -4 -19 -8 -29 -8 -17 0 -148 -39
-202 -60 -119 -47 -161 -65 -170 -72 -5 -4 -16 -8 -23 -8 -21 0 -177 -74 -362
-172 -121 -64 -326 -198 -460 -302 -176 -136 -417 -357 -514 -472 -28 -33 -78
-92 -111 -131 -33 -39 -76 -91 -95 -117 -19 -26 -46 -62 -60 -79 -14 -18 -29
-40 -35 -49 -5 -9 -29 -44 -53 -78 -23 -33 -42 -63 -42 -65 0 -3 -16 -29 -35
-59 -19 -30 -35 -59 -35 -64 0 -5 -6 -15 -14 -21 -15 -12 -176 -333 -176 -349
0 -6 -9 -27 -19 -49 -11 -21 -30 -67 -42 -103 -12 -36 -27 -78 -34 -95 -24
-55 -57 -186 -93 -360 -35 -171 -41 -225 -48 -402 l-7 -173 271 0 c150 0 272
1 272 3 1 1 7 70 16 152 8 83 19 175 25 205 5 30 13 78 18 105 11 69 52 218
62 230 5 5 9 19 9 32 0 34 83 246 137 351 18 35 33 72 33 83 0 10 3 19 8 19 4
0 15 17 25 38 28 58 61 116 71 123 5 4 16 22 25 41 21 43 116 181 230 334 74
98 417 434 526 515 55 41 102 76 105 79 3 3 23 17 45 31 267 174 456 266 690
338 127 39 296 74 305 64 4 -4 10 -395 12 -868 6 -988 -3 -905 100 -953 35
-16 90 -41 123 -57 57 -26 197 -80 240 -92 11 -3 26 -10 33 -16 9 -7 12 257
12 1317 l0 1326 -87 -1 c-49 -1 -142 -10 -208 -20z"/>
<path d="M4067 7525 c-4 -43 -7 -654 -7 -1359 0 -1259 1 -1282 20 -1325 37
-80 80 -107 295 -183 17 -6 53 -21 80 -33 28 -12 102 -44 165 -70 63 -26 129
-53 145 -60 17 -7 64 -25 105 -40 41 -14 83 -30 92 -36 10 -5 24 -9 33 -9 8 0
31 -7 52 -16 72 -32 92 -39 203 -71 141 -41 156 -42 865 -73 132 -6 375 -10
540 -10 165 0 412 -5 548 -11 215 -10 251 -10 263 3 13 13 12 36 -6 184 -12
93 -25 192 -30 219 -4 28 -11 68 -15 90 -22 133 -123 480 -175 600 -9 22 -25
60 -35 85 -30 77 -134 291 -183 375 -53 92 -177 289 -197 313 -8 9 -35 46 -62
82 -161 220 -497 562 -667 680 -11 8 -47 35 -78 60 -99 78 -116 90 -126 90 -5
0 -17 9 -27 20 -10 11 -22 20 -27 20 -5 0 -24 10 -41 23 -89 62 -379 217 -474
253 -26 10 -57 23 -68 30 -11 7 -49 22 -85 35 -36 12 -69 25 -75 30 -5 5 -17
9 -27 9 -10 0 -26 4 -36 9 -18 10 -166 55 -217 66 -16 3 -46 10 -65 15 -158
39 -361 67 -552 77 l-125 6 -6 -78z m763 -622 c58 -14 109 -30 115 -34 5 -5
17 -9 27 -9 10 0 26 -4 36 -9 9 -5 62 -28 117 -51 105 -43 181 -83 347 -183
50 -29 143 -95 183 -129 18 -16 36 -28 40 -28 7 0 57 -42 198 -166 102 -90
275 -274 352 -374 27 -36 56 -72 62 -80 39 -46 141 -200 201 -305 67 -115 182
-347 182 -365 0 -5 7 -26 16 -47 28 -65 42 -103 54 -148 5 -16 16 -57 24 -89
10 -37 13 -63 7 -69 -5 -5 -238 -7 -598 -4 -583 5 -597 6 -818 42 -22 4 -49
10 -60 15 -11 4 -49 16 -85 25 -77 21 -203 62 -245 80 -16 7 -41 16 -55 20
-14 4 -27 10 -30 14 -3 3 -30 23 -60 43 -91 62 -168 170 -205 289 -25 82 -36
482 -28 1081 l6 518 56 -6 c31 -3 103 -17 161 -31z"/>
<path d="M4760 6328 c0 -184 2 -206 20 -235 17 -28 87 -83 107 -83 12 0 147
-82 193 -119 60 -46 270 -253 270 -265 0 -5 9 -19 19 -30 32 -35 90 -118 112
-161 11 -22 31 -58 45 -80 13 -22 29 -50 34 -62 5 -12 27 -31 49 -43 37 -19
58 -20 297 -20 l256 0 -7 36 c-3 20 -10 44 -15 53 -4 9 -16 36 -26 61 -16 40
-83 168 -117 225 -7 11 -27 39 -44 62 -18 23 -33 44 -33 48 0 22 -203 243
-341 371 -161 149 -464 340 -619 390 -25 8 -54 19 -65 24 -22 9 -107 30 -124
30 -8 0 -11 -67 -11 -202z"/>
<path d="M2880 6524 c-52 -17 -204 -84 -265 -117 -11 -6 -47 -24 -80 -40 -69
-35 -209 -124 -275 -176 -98 -77 -360 -342 -360 -364 0 -4 -25 -42 -55 -87
-68 -100 -111 -194 -141 -310 -21 -79 -25 -373 -6 -392 7 -7 12 -22 12 -34 0
-40 71 -191 133 -284 61 -91 222 -233 327 -289 25 -13 52 -29 60 -36 28 -21
255 -125 274 -125 6 0 20 -6 31 -14 11 -7 38 -19 60 -26 22 -7 56 -21 75 -31
19 -11 39 -19 43 -19 5 0 23 -6 40 -14 18 -7 61 -26 97 -41 36 -15 84 -35 107
-46 24 -10 46 -19 49 -19 3 0 20 -6 37 -14 33 -14 152 -63 242 -98 28 -11 54
-24 60 -29 5 -5 17 -9 27 -9 9 0 33 -9 53 -20 20 -11 40 -20 46 -20 5 0 29 -8
52 -19 23 -10 76 -33 117 -50 41 -18 83 -36 92 -41 10 -6 23 -10 28 -10 6 0
30 -8 53 -19 23 -10 76 -33 117 -50 41 -18 83 -36 92 -41 10 -6 26 -10 36 -10
9 0 26 -6 37 -14 11 -7 31 -17 45 -21 14 -4 39 -13 55 -20 17 -7 59 -25 95
-40 36 -15 84 -35 106 -45 23 -11 54 -22 68 -26 14 -3 29 -10 32 -15 3 -5 14
-9 24 -9 10 0 31 -7 47 -15 15 -8 62 -28 103 -46 41 -17 98 -42 127 -55 28
-13 56 -24 61 -24 5 0 30 -11 56 -25 26 -14 52 -25 58 -25 6 0 70 -30 142 -66
140 -70 228 -138 281 -215 17 -24 32 -46 36 -49 15 -14 50 -107 64 -172 18
-87 19 -122 4 -202 -32 -170 -110 -313 -246 -453 -101 -103 -193 -168 -350
-246 -164 -83 -157 -67 -148 -327 3 -118 8 -217 10 -219 8 -7 274 103 400 166
214 107 340 197 496 352 129 129 168 176 214 260 11 20 29 50 41 66 54 79 124
259 146 375 16 90 21 288 8 370 -14 88 -35 169 -61 228 -11 23 -27 61 -38 85
-35 79 -177 251 -241 292 -19 13 -45 32 -57 44 -12 12 -25 21 -29 21 -4 0 -15
6 -23 14 -17 15 -111 70 -151 88 -14 6 -65 29 -115 50 -49 22 -98 43 -107 49
-10 5 -23 9 -29 9 -6 0 -27 7 -47 16 -21 9 -62 26 -92 39 -30 13 -76 33 -102
44 -26 12 -54 21 -61 21 -7 0 -21 6 -32 14 -11 7 -31 17 -45 21 -14 4 -38 13
-55 20 -16 7 -59 24 -95 39 -36 15 -73 31 -82 37 -10 5 -23 9 -29 9 -6 0 -25
7 -42 15 -18 8 -93 39 -167 69 -142 57 -202 81 -235 96 -11 4 -78 32 -150 61
-71 29 -134 56 -140 61 -5 4 -18 8 -30 8 -12 0 -25 4 -30 9 -6 5 -41 21 -80
36 -71 27 -165 65 -222 91 -17 8 -34 14 -37 14 -3 0 -25 8 -49 19 -23 10 -67
28 -97 40 -30 13 -68 29 -83 37 -16 8 -36 14 -46 14 -9 0 -21 4 -26 8 -6 5
-26 15 -45 22 -35 13 -62 25 -195 82 -144 62 -362 173 -415 212 -94 67 -187
193 -205 276 -14 66 -17 185 -6 241 11 52 38 122 61 159 6 8 14 24 19 35 5 12
16 27 25 34 9 7 16 19 16 26 0 7 40 53 89 103 79 81 100 96 195 142 59 28 125
67 146 86 77 70 119 208 106 353 -14 152 -16 158 -56 145z"/>
<path d="M200 3577 c0 -131 28 -331 75 -532 9 -38 19 -85 22 -103 3 -18 9 -35
14 -38 5 -3 9 -14 9 -26 0 -19 41 -156 61 -203 4 -11 16 -44 25 -73 9 -29 20
-55 25 -58 5 -3 9 -14 9 -24 0 -11 11 -39 25 -64 14 -25 25 -50 25 -57 0 -11
124 -261 158 -318 9 -16 32 -55 51 -88 67 -116 152 -242 270 -398 156 -207
467 -519 660 -661 31 -23 70 -53 86 -66 47 -39 134 -98 143 -98 5 0 17 -9 27
-20 10 -11 22 -20 28 -20 5 0 23 -10 40 -22 79 -57 506 -268 542 -268 7 0 17
-4 20 -10 3 -5 16 -10 29 -10 12 0 26 -4 32 -9 21 -20 363 -117 469 -132 225
-34 286 -40 416 -46 l146 -5 6 677 c9 832 7 2252 -1 2283 -8 27 -70 92 -88 92
-7 0 -43 16 -80 35 -37 19 -72 35 -78 35 -6 0 -42 15 -81 34 -38 18 -95 43
-125 56 -30 12 -73 31 -95 41 -22 9 -67 27 -100 39 -33 12 -69 25 -80 30 -48
20 -75 28 -215 66 -30 8 -111 24 -180 35 -151 23 -313 27 -1462 34 l-828 5 0
-113z m2400 -475 c14 -5 43 -15 65 -22 38 -12 64 -23 167 -69 59 -27 173 -131
200 -184 57 -112 63 -229 63 -1197 l0 -745 -65 0 c-99 0 -344 62 -384 97 -6 4
-16 8 -24 8 -19 0 -239 110 -253 126 -6 8 -16 14 -22 14 -5 0 -25 11 -43 25
-18 14 -35 25 -38 25 -4 0 -29 16 -56 35 -27 19 -53 35 -58 35 -4 0 -16 11
-26 25 -10 14 -23 25 -28 25 -10 0 -22 9 -127 92 -155 124 -427 392 -539 533
-22 28 -52 63 -66 79 -14 16 -26 32 -26 35 0 3 -12 20 -26 36 -30 34 -154 210
-154 218 0 3 -15 27 -33 54 -36 54 -146 273 -172 343 -10 25 -21 53 -26 62 -5
10 -9 27 -9 37 0 11 -4 23 -10 26 -5 3 -10 16 -10 28 0 12 -6 42 -14 67 -17
51 -36 190 -28 204 7 12 1710 1 1742 -12z"/>
<path d="M1450 2702 c0 -11 119 -243 135 -262 6 -8 19 -31 28 -50 22 -46 156
-236 232 -331 164 -203 366 -383 577 -516 92 -58 336 -183 357 -183 6 0 19 -4
29 -9 35 -18 93 -41 102 -41 6 0 10 85 10 219 l0 219 -47 39 c-48 39 -106 82
-218 164 -109 79 -325 295 -325 326 0 3 -7 14 -15 23 -16 17 -38 56 -112 194
-76 141 -87 160 -106 189 l-17 27 -315 0 c-173 0 -315 -4 -315 -8z"/>
<path d="M6894 3678 c-4 -6 -11 -62 -15 -122 -9 -133 -30 -286 -59 -421 -12
-55 -26 -120 -31 -145 -5 -24 -18 -69 -28 -100 -10 -30 -24 -75 -32 -100 -38
-131 -171 -429 -239 -535 -39 -61 -48 -78 -66 -110 -10 -16 -36 -54 -58 -84
-23 -29 -46 -61 -51 -71 -45 -76 -377 -425 -530 -556 -93 -80 -340 -254 -361
-254 -2 0 -27 -15 -56 -33 -84 -53 -257 -134 -348 -164 -25 -8 -72 -25 -105
-38 -73 -28 -285 -86 -295 -80 -4 2 -10 442 -13 976 -6 902 -8 974 -24 1001
-13 20 -44 41 -103 67 -47 22 -116 53 -153 70 -37 17 -70 31 -73 31 -3 0 -30
11 -60 25 -30 14 -58 25 -62 25 -4 0 -19 7 -34 14 l-28 15 0 -1430 0 -1429
100 0 c55 0 132 5 172 11 196 28 277 41 318 49 111 24 328 81 345 91 6 4 24 9
40 13 32 8 184 65 250 95 65 29 307 149 350 173 159 91 413 268 537 376 190
164 424 407 513 532 11 16 47 63 80 107 65 83 135 187 135 198 0 4 14 25 32
47 17 22 44 64 60 92 50 91 182 361 207 422 13 32 30 73 37 89 51 116 134 410
168 590 33 176 61 453 55 530 l-4 40 -282 3 c-211 2 -283 -1 -289 -10z"/>
</g>
</svg>
